<svg xmlns="http://www.w3.org/2000/svg" width="80" height="80" viewBox="0 0 80 80"><defs><style>.a{fill:#09141d;}.b{fill:#f20;}</style></defs><g transform="translate(-463.235 -1389.706)"><path class="a" d="M513.9,1483.765h-48a2.666,2.666,0,0,1-2.667-2.667v-66.667a2.666,2.666,0,0,1,2.667-2.667h48a2.665,2.665,0,0,1,2.667,2.667V1481.1A2.665,2.665,0,0,1,513.9,1483.765Zm-45.333-5.333h42.667V1417.1H468.568Z" transform="translate(0 -14.059)"></path><path class="a" d="M624.922,1535.314H598.255a2.665,2.665,0,0,1-2.667-2.667v-37.333a2.665,2.665,0,0,1,2.667-2.667h26.667a2.665,2.665,0,0,1,2.666,2.667v37.333A2.665,2.665,0,0,1,624.922,1535.314Zm-24-5.333h21.333v-32H600.921Z" transform="translate(-84.353 -65.608)"></path><path class="a" d="M524,1568.118H502.667a2.666,2.666,0,0,1-2.667-2.667v-18.667a2.666,2.666,0,0,1,2.667-2.667H524a2.666,2.666,0,0,1,2.667,2.667v18.667A2.666,2.666,0,0,1,524,1568.118Zm-18.666-5.333h16v-13.333h-16Z" transform="translate(-23.432 -98.412)"></path><path class="a" d="M495.314,1403.04a2.666,2.666,0,0,1-2.667-2.667v-8a2.667,2.667,0,1,1,5.333,0v8A2.666,2.666,0,0,1,495.314,1403.04Z" transform="translate(-18.745)"></path><path class="a" d="M524.726,1403.04a2.666,2.666,0,0,1-2.667-2.667v-8a2.667,2.667,0,1,1,5.333,0v8A2.666,2.666,0,0,1,524.726,1403.04Z" transform="translate(-37.49)"></path><path class="b" d="M530.059,1446.509h-5.333a2.667,2.667,0,1,1,0-5.333h5.333a2.667,2.667,0,1,1,0,5.333Z" transform="translate(-37.49 -32.803)"></path><path class="b" d="M566.823,1446.509H561.49a2.667,2.667,0,1,1,0-5.333h5.333a2.667,2.667,0,1,1,0,5.333Z" transform="translate(-60.921 -32.803)"></path><path class="b" d="M493.294,1446.509h-5.333a2.667,2.667,0,1,1,0-5.333h5.333a2.667,2.667,0,1,1,0,5.333Z" transform="translate(-14.059 -32.803)"></path><path class="b" d="M530.059,1483.274h-5.333a2.667,2.667,0,1,1,0-5.333h5.333a2.667,2.667,0,1,1,0,5.333Z" transform="translate(-37.49 -56.235)"></path><path class="b" d="M566.823,1483.274H561.49a2.667,2.667,0,1,1,0-5.333h5.333a2.667,2.667,0,1,1,0,5.333Z" transform="translate(-60.921 -56.235)"></path><path class="b" d="M493.294,1483.274h-5.333a2.667,2.667,0,1,1,0-5.333h5.333a2.667,2.667,0,1,1,0,5.333Z" transform="translate(-14.059 -56.235)"></path><path class="b" d="M530.059,1520.039h-5.333a2.667,2.667,0,1,1,0-5.333h5.333a2.667,2.667,0,1,1,0,5.333Z" transform="translate(-37.49 -79.667)"></path><path class="b" d="M566.823,1520.039H561.49a2.667,2.667,0,1,1,0-5.333h5.333a2.667,2.667,0,1,1,0,5.333Z" transform="translate(-60.921 -79.667)"></path><path class="b" d="M493.294,1520.039h-5.333a2.667,2.667,0,1,1,0-5.333h5.333a2.667,2.667,0,1,1,0,5.333Z" transform="translate(-14.059 -79.667)"></path><path class="a" d="M630.98,1527.392H620.314a2.667,2.667,0,1,1,0-5.333H630.98a2.667,2.667,0,1,1,0,5.333Z" transform="translate(-98.412 -84.353)"></path><path class="a" d="M630.98,1556.8H620.314a2.667,2.667,0,1,1,0-5.333H630.98a2.667,2.667,0,1,1,0,5.333Z" transform="translate(-98.412 -103.098)"></path></g></svg>
